<svg width="20" height="18" viewBox="0 0 20 18" fill="none" xmlns="http://www.w3.org/2000/svg">
<path d="M10.2818 16.3125C15.4081 16.3125 18.5637 13.3647 18.5637 9.72851C18.5637 6.09228 15.4081 3.14453 10.2818 3.14453C5.15562 3.14453 2 6.09228 2 9.72851C2 13.3647 5.15562 16.3125 10.2818 16.3125Z" stroke="#A1A1A1" stroke-width="1.4" stroke-miterlimit="10"/>
<path d="M10.2822 3.14407V0" stroke="#A1A1A1" stroke-width="0.7" stroke-miterlimit="10"/>
<path d="M10.2821 12.6074C11.8009 12.6074 13.032 11.3762 13.032 9.85742C13.032 8.33864 11.8009 7.10742 10.2821 7.10742C8.7634 7.10742 7.53223 8.33864 7.53223 9.85742C7.53223 11.3762 8.7634 12.6074 10.2821 12.6074Z" fill="#A1A1A1"/>
<path d="M3.33129 5.36671L1 3.14453" stroke="#A1A1A1" stroke-width="0.7" stroke-miterlimit="10"/>
<path d="M6.44928 3.72896L5.39551 0.75" stroke="#A1A1A1" stroke-width="0.7" stroke-miterlimit="10"/>
<path d="M14.0996 3.72896L15.1534 0.75" stroke="#A1A1A1" stroke-width="0.7" stroke-miterlimit="10"/>
<path d="M17.2246 5.36671L19.5559 3.14453" stroke="#A1A1A1" stroke-width="0.7" stroke-miterlimit="10"/>
</svg>
