<svg width="16" height="17" viewBox="0 0 16 17" fill="none" xmlns="http://www.w3.org/2000/svg">
<path d="M0.706055 16.0008C0.706055 14.5137 1.50394 14.135 2.79608 13.442C3.55866 13.0377 4.40597 12.7129 5.31682 12.5035C5.29564 12.3014 5.27446 12.0199 5.23209 11.6229C5.21091 11.4496 5.11206 11.3052 4.9779 11.2114C3.21267 10.042 2.13942 7.89081 2.49952 5.51586C2.76078 3.78338 3.84816 2.25302 5.35919 1.41565C6.26298 0.903123 7.15266 0.722656 7.99997 0.722656C8.84727 0.722656 9.73695 0.903123 10.6478 1.40843C12.1588 2.2458 13.2462 3.77616 13.5075 5.50864C13.8676 7.88359 12.7873 10.0348 11.0291 11.2042C10.8879 11.298 10.789 11.4496 10.7749 11.6157C10.7325 12.0199 10.7043 12.3014 10.6902 12.4963C11.601 12.7129 12.4483 13.0305 13.2109 13.4348C14.5031 14.1205 15.3009 14.5065 15.3009 15.9936" stroke="#A1A1A1" stroke-width="1.4" stroke-miterlimit="10"/>
<path d="M2.42188 6.47595C2.42188 6.47595 7.99999 5.2993 7.99999 0.722656" stroke="#A1A1A1" stroke-width="0.7" stroke-miterlimit="10"/>
<path d="M13.5781 6.47595C13.5781 6.47595 8 5.2993 8 0.722656" stroke="#A1A1A1" stroke-width="0.7" stroke-miterlimit="10"/>
<path d="M5.31641 12.4961C5.31641 12.4961 8.02073 14.2719 10.5485 12.4961" stroke="#A1A1A1" stroke-width="0.7" stroke-miterlimit="10"/>
<path d="M6.03711 6.31641V7.34868" stroke="#A1A1A1" stroke-width="0.7" stroke-miterlimit="10"/>
<path d="M9.96289 6.31641V7.34868" stroke="#A1A1A1" stroke-width="0.7" stroke-miterlimit="10"/>
</svg>
